<?xml version="1.0" encoding="UTF-8" standalone="no"?><!-- Generated by Microsoft Visio, SVG Export nrfcloud-overview.svg Page-1 --><svg xmlns="http://www.w3.org/2000/svg" xmlns:ev="http://www.w3.org/2001/xml-events" xmlns:xlink="http://www.w3.org/1999/xlink" class="st11" color-interpolation-filters="sRGB" height="6.74786in" viewBox="0 0 679.48 485.846" width="9.43723in" xml:space="preserve">
	<style type="text/css">
	<![CDATA[
		.st1 {fill:#6ad1e3;stroke:none;stroke-width:1}
		.st2 {fill:#00a9ce;stroke:none;stroke-width:1}
		.st3 {fill:#d9e1e2;stroke:none;stroke-width:1}
		.st4 {fill:#000000;font-family:Arial;font-size:1.00001em}
		.st5 {fill:#0033a0;stroke:none;stroke-width:1}
		.st6 {fill:#feffff;font-family:Arial;font-size:0.833336em}
		.st7 {font-size:1em}
		.st8 {fill:none;stroke:none;stroke-width:1}
		.st9 {fill:#ffffff;font-family:Arial;font-size:1.33333em}
		.st10 {fill:#ffffff;stroke:none;stroke-linecap:butt;stroke-width:0.924471}
		.st11 {fill:none;fill-rule:evenodd;font-size:12px;overflow:visible;stroke-linecap:square;stroke-miterlimit:3}
	]]>
	</style>

	<g>
		<title>Page-1</title>
		<g id="group1001-1" transform="translate(1,-1)">
			<title>Sheet.1001</title>
			<g id="shape5-2">
				<title>Rectangle</title>
				<rect class="st1" height="483.846" width="677.48" x="0" y="2"/>
			</g>
			<g id="shape6-4" transform="translate(13.5596,-216.929)">
				<title>Rectangle.2</title>
				<rect class="st2" height="210.537" width="169.674" x="0" y="275.309"/>
			</g>
			<g id="shape7-6" transform="translate(20.5374,-349.814)">
				<title>Rectangle.3</title>
				<desc>Cellular</desc>
				<rect class="st3" height="40.0336" width="152.927" x="0" y="445.812"/>
				<text class="st4" x="56.12" y="460.61">Cellular</text>			</g>
			<g id="shape8-9" transform="translate(20.5374,-303.282)">
				<title>Rectangle.4</title>
				<desc>GNSS</desc>
				<rect class="st3" height="40.0336" width="152.927" x="0" y="445.812"/>
				<text class="st4" x="59.46" y="460.61">GNSS</text>			</g>
			<g id="shape9-12" transform="translate(21.0982,-256.924)">
				<title>Rectangle.5</title>
				<desc>Wi-Fi</desc>
				<rect class="st3" height="40.0336" width="152.927" x="0" y="445.812"/>
				<text class="st4" x="62.47" y="460.61">Wi-Fi</text>			</g>
			<g id="shape10-15" transform="translate(29.136,-352.08)">
				<title>Rectangle.6</title>
				<desc>Single cell</desc>
				<rect class="st5" height="18.1188" width="62.9912" x="0" y="467.727"/>
				<text class="st6" x="8.7" y="479.79">Single cell</text>			</g>
			<g id="shape11-18" transform="translate(28.5335,-305.664)">
				<title>Rectangle.8</title>
				<desc>A-GNSS</desc>
				<rect class="st5" height="18.1188" width="62.9912" x="0" y="467.727"/>
				<text class="st6" x="12.33" y="479.79">A-GNSS</text>			</g>
			<g id="shape12-21" transform="translate(99.5029,-305.664)">
				<title>Rectangle.9</title>
				<desc>P-GNSS</desc>
				<rect class="st5" height="18.1188" width="62.9912" x="0" y="467.727"/>
				<text class="st6" x="12.33" y="479.79">P-GNSS</text>			</g>
			<g id="shape13-24" transform="translate(53.4762,-259.588)">
				<title>Rectangle.10</title>
				<desc>Access points</desc>
				<rect class="st5" height="18.1188" width="93.3782" x="0" y="467.727"/>
				<text class="st6" x="15.84" y="479.79">Access points</text>			</g>
			<g id="shape14-27" transform="translate(190.153,-216.929)">
				<title>Rectangle.11</title>
				<rect class="st2" height="210.537" width="275.52" x="0" y="275.309"/>
			</g>
			<g id="shape15-29" transform="translate(196.901,-222.985)">
				<title>Rectangle.12</title>
				<desc>Firmware update</desc>
				<rect class="st3" height="100.798" width="81.8886" x="0" y="385.048"/>
				<text class="st4" x="15.95" y="399.85">Firmware <tspan class="st7" dy="1.2em" x="22.59">update</tspan></text>			</g>
			<g id="shape16-33" transform="translate(206.615,-260.204)">
				<title>Rectangle.13</title>
				<desc>App</desc>
				<rect class="st5" height="25.0749" width="62.9912" x="0" y="460.771"/>
				<text class="st6" x="22.6" y="476.31">App</text>			</g>
			<g id="shape17-36" transform="translate(206.615,-229.374)">
				<title>Rectangle.14</title>
				<desc>Modem</desc>
				<rect class="st5" height="25.0749" width="62.9912" x="0" y="460.771"/>
				<text class="st6" x="14.82" y="476.31">Modem</text>			</g>
			<g id="shape18-39" transform="translate(286.795,-222.985)">
				<title>Rectangle.15</title>
				<desc>Data collection</desc>
				<rect class="st3" height="100.798" width="81.8886" x="0" y="385.048"/>
				<text class="st4" x="28.27" y="399.85">Data  <tspan class="st7" dy="1.2em" x="15.93">collection</tspan></text>			</g>
			<g id="shape19-43" transform="translate(376.689,-222.985)">
				<title>Rectangle.17</title>
				<desc>Fleet management</desc>
				<rect class="st3" height="166.863" width="81.8886" x="0" y="318.983"/>
				<text class="st4" x="27.61" y="333.78">Fleet <tspan class="st7" dy="1.2em" x="5.92">management</tspan></text>			</g>
			<g id="shape20-47" transform="translate(387.717,-279.678)">
				<title>Rectangle.18</title>
				<desc>Device control</desc>
				<rect class="st5" height="32.9898" width="62.9912" x="0" y="452.856"/>
				<text class="st6" x="16.21" y="466.35">Device <tspan class="st7" dy="1.2em" x="16.49">control</tspan></text>			</g>
			<g id="shape21-51" transform="translate(295.591,-260.204)">
				<title>Rectangle.21</title>
				<desc>Message history</desc>
				<rect class="st5" height="25.1243" width="62.9912" x="0" y="460.721"/>
				<text class="st6" x="11.21" y="470.28">Message <tspan class="st7" dy="1.2em" x="16.77">history</tspan></text>			</g>
			<g id="shape22-55" transform="translate(387.717,-317.554)">
				<title>Rectangle.22</title>
				<desc>Device state</desc>
				<rect class="st5" height="32.9898" width="62.9912" x="0" y="452.856"/>
				<text class="st6" x="16.21" y="466.35">Device <tspan class="st7" dy="1.2em" x="20.66">state</tspan></text>			</g>
			<g id="shape23-59" transform="translate(32.5984,-19.7406)">
				<title>Rectangle.23</title>
				<rect class="st2" height="188.04" width="344.09" x="0" y="297.805"/>
			</g>
			<g id="shape24-61" transform="translate(147.256,-28.2445)">
				<title>Rectangle.98</title>
				<desc>Self-service</desc>
				<rect class="st3" height="146.361" width="105.028" x="0" y="339.485"/>
				<text class="st4" x="21.17" y="354.29">Self-service</text>			</g>
			<g id="shape25-64" transform="translate(154.176,-88.7766)">
				<title>Rectangle.25</title>
				<desc>Service and plan management</desc>
				<rect class="st5" height="44.2596" width="90.9653" x="0" y="441.586"/>
				<text class="st6" x="8.24" y="460.72">Service and plan <tspan class="st7" dy="1.2em" x="16.3">management</tspan></text>			</g>
			<g id="shape26-68" transform="translate(154.176,-36.9928)">
				<title>Rectangle.26</title>
				<desc>Billing</desc>
				<rect class="st5" height="44.2596" width="90.9653" x="0" y="441.586"/>
				<text class="st6" x="32.14" y="466.72">Billing</text>			</g>
			<g id="shape27-71" transform="translate(41.5119,-28.4895)">
				<title>Rectangle.90</title>
				<desc>Teams and access</desc>
				<rect class="st3" height="146.361" width="99.37" x="0" y="339.485"/>
				<text class="st4" x="19.67" y="354.29">Teams and  <tspan class="st7" dy="1.2em" x="31.01">access</tspan></text>			</g>
			<g id="shape28-75" transform="translate(53.8583,-71.5038)">
				<title>Rectangle.28</title>
				<desc>User roles</desc>
				<rect class="st5" height="27.0789" width="77.1061" x="0" y="458.767"/>
				<text class="st6" x="15.77" y="475.31">User roles</text>			</g>
			<g id="shape29-78" transform="translate(53.8583,-105.957)">
				<title>Rectangle.29</title>
				<desc>User management</desc>
				<rect class="st5" height="27.0789" width="77.1061" x="0" y="458.767"/>
				<text class="st6" x="28" y="469.31">User <tspan class="st7" dy="1.2em" x="9.37">management</tspan></text>			</g>
			<g id="shape30-82" transform="translate(9.12224,-389.847)">
				<title>Sheet.30</title>
				<desc>Location Services</desc>
				<rect class="st8" height="31.5627" width="169.674" x="0" y="454.283"/>
				<text class="st9" x="21.69" y="474.86">Location Services</text>			</g>
			<g id="shape31-85" transform="translate(190.153,-389.847)">
				<title>Sheet.31</title>
				<desc>Device management</desc>
				<rect class="st8" height="31.5627" width="276.308" x="0" y="454.283"/>
				<text class="st9" x="64.78" y="474.86">Device management</text>			</g>
			<g id="shape32-88" transform="translate(32.5984,-172.162)">
				<title>Sheet.32</title>
				<desc>Admin and support services</desc>
				<rect class="st8" height="35.6183" width="344.09" x="0" y="450.227"/>
				<text class="st9" x="73.33" y="472.84">Admin and support services</text>			</g>
			<g id="group33-91" transform="translate(256.811,-442.146)">
				<title>Sheet.33</title>
				<g id="group34-92">
					<title>Sheet.34</title>
					<g id="shape35-93" transform="translate(0,-2.44693)">
						<title>Sheet.35</title>
						<path class="st10" d="M28.04 471.3 C27.6 469.21 26.48 467.3 24.86 465.87 C23.03 464.27 20.7 463.39 18.27 463.39 C15.79           463.39 13.42 464.3 11.59 465.95 C10.03 467.35 8.96 469.19 8.51 471.21 C8.14 471.15 7.76 471.12           7.38 471.12 C3.31 471.12 0 474.42 0 478.48 C0 480.44 0.88 482.3 2.47 483.72 C3.98 485.07 5.97           485.85 7.93 485.85 L9.47 485.85 C9.99 485.85 10.41 485.42 10.41 484.9 C10.41 484.39 9.99 483.96           9.47 483.96 L7.93 483.96 C4.77 483.96 1.89 481.35 1.89 478.48 C1.89 475.46 4.35 473 7.38 473           C7.94 473 8.48 473.08 9 473.24 C9.27 473.32 9.56 473.29 9.8 473.13 C10.03 472.98 10.19 472.72           10.22 472.45 C10.67 468.36 14.14 465.28 18.27 465.28 C22.29 465.28 25.74 468.27 26.29 472.24           C26.35 472.67 26.68 472.99 27.11 473.05 C29.83 473.4 31.89 475.74 31.89 478.48 C31.89 481.5           29.42 483.96 26.39 483.96 C25.87 483.96 25.45 484.39 25.45 484.9 C25.45 485.42 25.87 485.85           26.39 485.85 C30.46 485.85 33.77 482.54 33.77 478.48 C33.77 475.03 31.36 472.06 28.04 471.3           Z"/>
					</g>
					<g id="shape36-95" transform="translate(17.8931,5.68434E-14)">
						<title>Sheet.36</title>
						<path class="st10" d="M5.15 481.55 L3.64 481.55 L3.64 475.93 C3.64 475.41 3.21 474.99 2.69 474.99 C2.17 474.99 1.75 475.41           1.75 475.93 L1.75 481.55 L0.24 481.55 C0.08 481.55 0 481.86 0.11 482.03 L2.6 485.74 C2.67 485.85           2.78 485.85 2.85 485.74 L5.27 482.03 C5.39 481.86 5.31 481.55 5.15 481.55 Z"/>
					</g>
					<g id="shape37-97" transform="translate(11.1779,-4.43213)">
						<title>Sheet.37</title>
						<path class="st10" d="M2.78 475.09 C2.72 474.99 2.61 474.99 2.54 475.09 L0.11 478.8 C0 478.97 0.08 479.28 0.24 479.28           L1.75 479.28 L1.75 484.9 C1.75 485.43 2.17 485.85 2.69 485.85 C3.21 485.85 3.64 485.42 3.64           484.9 L3.64 479.28 L5.15 479.28 C5.31 479.28 5.39 478.97 5.27 478.8 L2.78 475.09 Z"/>
					</g>
				</g>
				<g id="group38-99" transform="translate(43.4915,-2.17285)">
					<title>Sheet.38</title>
					<g id="shape39-100" transform="translate(0,-0.419756)">
						<title>Sheet.39</title>
						<path class="st10" d="M10.34 473.84 C11.22 474.74 11.67 476.12 11.67 477.98 L11.67 485.85 L9.65 485.85 L9.65 478.27 C9.65           477 9.34 476.06 8.72 475.44 C8.11 474.83 7.25 474.52 6.17 474.52 C4.94 474.52 3.94 474.94 3.17           475.79 C2.4 476.64 2.02 478 2.02 479.89 L2.02 485.85 L0 485.85 L0 472.92 L2.02 472.92 L2.02           475.41 L2.07 475.41 C2.5 474.46 3.11 473.73 3.88 473.24 C4.66 472.75 5.6 472.5 6.7 472.5 C8.24           472.5 9.45 472.95 10.34 473.84 Z"/>
					</g>
					<g id="shape40-102" transform="translate(15.3981,-0.419756)">
						<title>Sheet.40</title>
						<path class="st10" d="M4.94 477.42 L2.16 477.42 L2.16 485.84 L0 485.84 L0 466.26 L6.53 466.26 C8.29 466.26 9.73 466.76           10.84 467.74 C11.95 468.73 12.51 470.1 12.51 471.86 C12.51 473.41 12.05 474.67 11.13 475.65           C10.22 476.63 9.01 477.2 7.51 477.37 L13.49 485.85 L10.77 485.85 L4.94 477.42 ZM2.16 475.38           L6.25 475.38 C7.52 475.38 8.49 475.07 9.17 474.43 C9.84 473.8 10.18 472.94 10.18 471.86 C10.18           470.76 9.84 469.89 9.17 469.26 C8.49 468.62 7.52 468.3 6.25 468.3 L2.16 468.3 L2.16 475.38 Z"/>
					</g>
					<g id="shape41-104" transform="translate(31.4126,-0.419756)">
						<title>Sheet.41</title>
						<path class="st10" d="M2.16 468.3 L2.16 474.66 L10.4 474.66 L10.4 476.67 L2.16 476.67 L2.16 485.85 L0 485.85 L0 466.26           L11.13 466.26 L11.13 468.3 L2.16 468.3 Z"/>
					</g>
					<g id="shape42-106" transform="translate(51.6596,5.68434E-14)">
						<title>Sheet.42</title>
						<path class="st10" d="M5 484.56 C3.42 483.7 2.2 482.5 1.32 480.95 C0.44 479.4 0 477.63 0 475.63 C0 473.64 0.44 471.87           1.32 470.32 C2.2 468.77 3.42 467.57 5 466.71 C6.58 465.85 8.41 465.42 10.49 465.42 C11.87 465.42           13.11 465.61 14.22 465.98 C15.32 466.35 16.36 466.9 17.33 467.63 L16.01 469.5 C14.33 468.24           12.47 467.6 10.43 467.6 C8.86 467.6 7.46 467.94 6.24 468.61 C5.01 469.28 4.06 470.23 3.38 471.45           C2.69 472.67 2.35 474.07 2.35 475.63 C2.35 477.2 2.7 478.59 3.38 479.82 C4.06 481.04 5.01 481.98           6.24 482.66 C7.46 483.33 8.86 483.66 10.43 483.66 C12.47 483.66 14.33 483.03 16.01 481.76 L17.33           483.64 C16.36 484.36 15.32 484.91 14.22 485.29 C13.11 485.66 11.87 485.85 10.49 485.85 C8.41           485.85 6.58 485.42 5 484.56 Z"/>
					</g>
					<g id="shape43-108" transform="translate(71.5973,-0.419756)">
						<title>Sheet.43</title>
						<path class="st10" d="M2.02 485.85 L0 485.85 L0 466.26 L2.02 466.26 L2.02 485.85 Z"/>
					</g>
					<g id="shape44-110" transform="translate(76.3917,-0.00246915)">
						<title>Sheet.44</title>
						<path class="st10" d="M10.63 472.96 C11.7 473.55 12.53 474.37 13.12 475.41 C13.72 476.46 14.02 477.64 14.02 478.96 C14.02           480.29 13.72 481.47 13.12 482.52 C12.52 483.56 11.69 484.38 10.63 484.96 C9.56 485.55 8.36 485.85           7.01 485.85 C5.68 485.85 4.49 485.55 3.42 484.96 C2.36 484.38 1.52 483.56 0.91 482.5 C0.3 481.45           0 480.27 0 478.96 C0 477.66 0.3 476.48 0.91 475.43 C1.52 474.37 2.36 473.55 3.42 472.96 C4.49           472.38 5.68 472.08 7.01 472.08 C8.36 472.08 9.56 472.38 10.63 472.96 ZM4.5 474.67 C3.76 475.07           3.19 475.65 2.76 476.39 C2.34 477.14 2.13 478 2.13 478.96 C2.13 479.93 2.34 480.79 2.76 481.54           C3.19 482.28 3.76 482.86 4.5 483.26 C5.24 483.66 6.08 483.86 7.01 483.86 C7.95 483.86 8.78 483.66           9.52 483.26 C10.26 482.86 10.84 482.28 11.26 481.54 C11.68 480.79 11.89 479.93 11.89 478.96           C11.89 477.99 11.68 477.14 11.26 476.39 C10.84 475.65 10.26 475.07 9.52 474.67 C8.78 474.27           7.95 474.07 7.01 474.07 C6.08 474.07 5.24 474.27 4.5 474.67 Z"/>
					</g>
					<g id="shape45-112" transform="translate(92.9681,-5.68434E-14)">
						<title>Sheet.45</title>
						<path class="st10" d="M1.33 484.49 C0.44 483.58 0 482.19 0 480.3 L0 472.5 L2.05 472.5 L2.05 480.19 C2.05 481.44 2.34 482.37           2.93 482.98 C3.52 483.58 4.32 483.89 5.33 483.89 C6.52 483.89 7.48 483.45 8.2 482.57 C8.92 481.69           9.28 480.29 9.28 478.34 L9.28 472.5 L11.3 472.5 L11.3 485.43 L9.28 485.43 L9.28 483.02 L9.23           483.02 C8.87 483.86 8.33 484.54 7.61 485.06 C6.89 485.58 5.96 485.85 4.82 485.85 C3.38 485.85           2.22 485.39 1.33 484.49 Z"/>
					</g>
					<g id="shape46-114" transform="translate(106.96,1.7053E-13)">
						<title>Sheet.46</title>
						<path class="st10" d="M3.17 485.01 C2.2 484.45 1.43 483.65 0.86 482.6 C0.29 481.56 0 480.34 0 478.96 C0 477.58 0.28 476.37           0.86 475.33 C1.43 474.28 2.2 473.48 3.17 472.92 C4.14 472.36 5.23 472.08 6.42 472.08 C7.56 472.08           8.55 472.32 9.38 472.81 C10.21 473.3 10.86 473.96 11.33 474.8 L11.39 474.8 L11.39 465.84 L13.41           465.84 L13.41 485.43 L11.39 485.43 L11.39 483.13 L11.33 483.13 C10.86 483.97 10.21 484.63 9.38           485.12 C8.55 485.6 7.56 485.85 6.42 485.85 C5.23 485.85 4.14 485.56 3.17 485.01 ZM10.21 482.49           C11.07 481.57 11.5 480.4 11.5 478.96 C11.5 477.52 11.07 476.35 10.21 475.44 C9.35 474.52 8.22           474.07 6.81 474.07 C5.41 474.07 4.28 474.52 3.42 475.44 C2.56 476.35 2.13 477.52 2.13 478.96           C2.13 480.4 2.56 481.57 3.42 482.49 C4.28 483.4 5.41 483.86 6.81 483.86 C8.22 483.86 9.35 483.4           10.21 482.49 Z"/>
					</g>
				</g>
			</g>
			<g id="shape47-116" transform="translate(472.359,-216.669)">
				<title>Rectangle.1000</title>
				<rect class="st2" height="210.537" width="186.179" x="0" y="275.309"/>
			</g>
			<g id="shape48-118" transform="translate(472.359,-389.847)">
				<title>Sheet.48</title>
				<desc>Security Services</desc>
				<rect class="st8" height="31.5627" width="184.088" x="0" y="454.283"/>
				<text class="st9" x="30.25" y="474.86">Security Services</text>			</g>
			<g id="shape49-121" transform="translate(478.614,-222.939)">
				<title>Rectangle.1002</title>
				<desc>Identity Service</desc>
				<rect class="st3" height="166.863" width="81.8886" x="0" y="318.983"/>
				<text class="st4" x="21.6" y="333.78">Identity <tspan class="st7" dy="1.2em" x="20.94">Service</tspan></text>			</g>
			<g id="shape50-125" transform="translate(569.175,-222.939)">
				<title>Rectangle.1003</title>
				<desc>Provisioning Service</desc>
				<rect class="st3" height="166.863" width="81.8886" x="0" y="318.983"/>
				<text class="st4" x="8.26" y="333.78">Provisioning <tspan class="st7" dy="1.2em" x="20.94">Service</tspan></text>			</g>
			<g id="shape51-129" transform="translate(579.056,-310.467)">
				<title>Rectangle.1005</title>
				<desc>Device claiming</desc>
				<rect class="st5" height="32.9898" width="62.9912" x="0" y="452.856"/>
				<text class="st6" x="16.21" y="466.35">Device <tspan class="st7" dy="1.2em" x="13.16">claiming</tspan></text>			</g>
			<g id="shape52-133" transform="translate(490.079,-310.467)">
				<title>Rectangle.1006</title>
				<desc>Token verification</desc>
				<rect class="st5" height="32.9898" width="62.9912" x="0" y="452.856"/>
				<text class="st6" x="17.6" y="466.35">Token <tspan class="st7" dy="1.2em" x="7.6">verification</tspan></text>			</g>
			<g id="shape53-137" transform="translate(579.056,-252.224)">
				<title>Rectangle.1007</title>
				<desc>Provisioning config</desc>
				<rect class="st5" height="32.9898" width="62.9912" x="0" y="452.856"/>
				<text class="st6" x="4.26" y="466.35">Provisioning <tspan class="st7" dy="1.2em" x="18.15">config</tspan></text>			</g>
			<g id="shape54-141" transform="translate(99.2529,-352.08)">
				<title>Rectangle.1008</title>
				<desc>Multi cell</desc>
				<rect class="st5" height="18.1188" width="62.9912" x="0" y="467.727"/>
				<text class="st6" x="12.05" y="479.79">Multi cell</text>			</g>
			<g id="shape55-144" transform="translate(577.258,-100.214)">
				<title>Rectangle.55</title>
				<desc>REST</desc>
				<rect class="st5" height="27.0789" width="50.6161" x="0" y="458.767"/>
				<text class="st6" x="11.97" y="475.31">REST</text>			</g>
			<g id="shape56-147" transform="translate(383.017,-19.7406)">
				<title>Rectangle.56</title>
				<rect class="st2" height="188.04" width="275.52" x="0" y="297.805"/>
			</g>
			<g id="shape57-149" transform="translate(422.362,-172.162)">
				<title>Sheet.57</title>
				<desc>Device connectivity</desc>
				<rect class="st8" height="35.6183" width="205.333" x="0" y="450.227"/>
				<text class="st9" x="34.19" y="472.84">Device connectivity</text>			</g>
			<g id="shape58-152" transform="translate(390.932,-28.2445)">
				<title>Rectangle.34</title>
				<desc>Transport and protocols</desc>
				<rect class="st3" height="146.361" width="260.131" x="0" y="339.485"/>
				<text class="st4" x="66.7" y="354.29">Transport and protocols</text>			</g>
			<g id="shape59-155" transform="translate(469.056,-111.91)">
				<title>Rectangle.59</title>
				<desc>MQTT</desc>
				<rect class="st5" height="24.9014" width="50.6161" x="0" y="460.944"/>
				<text class="st6" x="11.15" y="476.4">MQTT</text>			</g>
			<g id="shape60-158" transform="translate(409.659,-111.91)">
				<title>Rectangle.60</title>
				<desc>CoAP</desc>
				<rect class="st5" height="24.9014" width="50.6161" x="0" y="460.944"/>
				<text class="st6" x="12.25" y="476.4">CoAP</text>			</g>
			<g id="shape61-161" transform="translate(582.297,-111.91)">
				<title>Rectangle.61</title>
				<desc>HTTP</desc>
				<rect class="st5" height="24.9014" width="50.6161" x="0" y="460.944"/>
				<text class="st6" x="12.25" y="476.4">HTTP</text>			</g>
			<g id="shape62-164" transform="translate(295.591,-229.374)">
				<title>Rectangle.1065</title>
				<desc>Alerts and logs</desc>
				<rect class="st5" height="25.1243" width="62.9912" x="0" y="460.721"/>
				<text class="st6" x="8.98" y="470.28">Alerts and <tspan class="st7" dy="1.2em" x="22.32">logs</tspan></text>			</g>
			<g id="shape63-168" transform="translate(490.079,-252.224)">
				<title>Rectangle.1066</title>
				<desc>Provisioning groups</desc>
				<rect class="st5" height="32.9898" width="62.9912" x="0" y="452.856"/>
				<text class="st6" x="4.26" y="466.35">Provisioning <tspan class="st7" dy="1.2em" x="16.21">groups</tspan></text>			</g>
			<g id="shape64-172" transform="translate(21.933,-222.985)">
				<title>Rectangle.1067</title>
				<desc>Location history</desc>
				<rect class="st3" height="27.0789" width="152.927" x="0" y="458.767"/>
				<text class="st4" x="34.44" y="475.91">Location history</text>			</g>
			<g id="shape65-175" transform="translate(387.717,-241.923)">
				<title>Rectangle.1068</title>
				<desc>Device groups</desc>
				<rect class="st5" height="32.9898" width="62.9912" x="0" y="452.856"/>
				<text class="st6" x="16.21" y="466.35">Device <tspan class="st7" dy="1.2em" x="16.21">groups</tspan></text>			</g>
			<g id="shape66-179" transform="translate(53.8583,-38.1781)">
				<title>Rectangle.1069</title>
				<desc>Device group bindings</desc>
				<rect class="st5" height="27.0789" width="77.1061" x="0" y="458.767"/>
				<text class="st6" x="9.09" y="469.31">Device group <tspan class="st7" dy="1.2em" x="19.93">bindings</tspan></text>			</g>
			<g id="shape67-183" transform="translate(409.659,-85.4652)">
				<title>Rectangle.1070</title>
				<desc>UDP</desc>
				<rect class="st5" height="18.1188" width="50.6161" x="0" y="467.727"/>
				<text class="st6" x="14.75" y="479.79">UDP</text>			</g>
			<g id="shape68-186" transform="translate(469.056,-85.4652)">
				<title>Rectangle.1071</title>
				<desc>TCP</desc>
				<rect class="st5" height="18.1188" width="163.857" x="0" y="467.727"/>
				<text class="st6" x="71.93" y="479.79">TCP</text>			</g>
			<g id="shape69-189" transform="translate(409.659,-51.2998)">
				<title>Rectangle.1072</title>
				<desc>DTLS and CID</desc>
				<rect class="st5" height="27.0789" width="50.6161" x="0" y="458.767"/>
				<text class="st6" x="12.53" y="469.31">DTLS <tspan class="st7" dy="1.2em" x="6.97">and CID</tspan></text>			</g>
			<g id="shape70-193" transform="translate(469.056,-51.2998)">
				<title>Rectangle.1073</title>
				<desc>TLS</desc>
				<rect class="st5" height="27.0789" width="163.857" x="0" y="458.767"/>
				<text class="st6" x="72.76" y="475.31">TLS</text>			</g>
			<g id="shape71-196" transform="translate(260.641,-28.2445)">
				<title>Rectangle.1074</title>
				<desc>Support services</desc>
				<rect class="st3" height="146.361" width="105.028" x="0" y="339.485"/>
				<text class="st4" x="7.83" y="354.29">Support services</text>			</g>
			<g id="shape72-199" transform="translate(267.673,-68.4912)">
				<title>Rectangle.72</title>
				<desc>IMEI management</desc>
				<rect class="st5" height="45.3532" width="90.9653" x="0" y="440.492"/>
				<text class="st6" x="4.63" y="466.17">IMEI management</text>			</g>
			<g id="shape73-202" transform="translate(525.676,-111.91)">
				<title>Rectangle.1088</title>
				<desc>REST</desc>
				<rect class="st5" height="24.9014" width="50.6161" x="0" y="460.944"/>
				<text class="st6" x="11.97" y="476.4">REST</text>			</g>
			<g id="shape74-205" transform="translate(196.901,-332.402)">
				<title>Rectangle.1089</title>
				<desc>nRF Cloud portal</desc>
				<rect class="st3" height="57.4452" width="81.8886" x="0" y="428.4"/>
				<text class="st4" x="12.27" y="453.52">nRF Cloud <tspan class="st7" dy="1.2em" x="25.94">portal</tspan></text>			</g>
			<g id="shape75-209" transform="translate(289.292,-334.049)">
				<title>Rectangle.1090</title>
				<desc>REST API</desc>
				<rect class="st3" height="55.7984" width="81.8886" x="0" y="430.047"/>
				<text class="st4" x="13.6" y="461.55">REST API</text>			</g>
		</g>
	</g>
</svg>